<?xml version="1.0" encoding="UTF-8" standalone="no"?>
<!-- Generator: flash2svg, http://dissentgraphics.com/tools/flash2svg -->

<svg
   xmlns:dc="http://purl.org/dc/elements/1.1/"
   xmlns:cc="http://creativecommons.org/ns#"
   xmlns:rdf="http://www.w3.org/1999/02/22-rdf-syntax-ns#"
   xmlns:svg="http://www.w3.org/2000/svg"
   xmlns="http://www.w3.org/2000/svg"
   xmlns:xlink="http://www.w3.org/1999/xlink"
   xmlns:sodipodi="http://sodipodi.sourceforge.net/DTD/sodipodi-0.dtd"
   xmlns:inkscape="http://www.inkscape.org/namespaces/inkscape"
   id="Iterm"
   image-rendering="optimizeSpeed"
   version="1.1"
   style="background-color:#ffffff"
   x="0px"
   y="0px"
   width="1024px"
   height="1024px"
   viewBox="0 0 1024 1024"
   enable-background="new 0 0 1024 1024"
   sodipodi:docname="terminal.svg"
   inkscape:version="0.92.4 (5da689c313, 2019-01-14)">
  <metadata
     id="metadata34">
    <rdf:RDF>
      <cc:Work
         rdf:about="">
        <dc:format>image/svg+xml</dc:format>
        <dc:type
           rdf:resource="http://purl.org/dc/dcmitype/StillImage" />
        <dc:title />
      </cc:Work>
    </rdf:RDF>
  </metadata>
  <sodipodi:namedview
     pagecolor="#ffffff"
     bordercolor="#666666"
     borderopacity="1"
     objecttolerance="10"
     gridtolerance="10"
     guidetolerance="10"
     inkscape:pageopacity="0"
     inkscape:pageshadow="2"
     inkscape:window-width="1920"
     inkscape:window-height="944"
     id="namedview32"
     showgrid="true"
     inkscape:zoom="0.7109375"
     inkscape:cx="512"
     inkscape:cy="512"
     inkscape:window-x="0"
     inkscape:window-y="25"
     inkscape:window-maximized="1"
     inkscape:current-layer="Iterm"
     inkscape:pagecheckerboard="true">
    <inkscape:grid
       type="xygrid"
       id="grid841" />
  </sodipodi:namedview>
  <defs
     transform="matrix(1 0 0 1 0 0) "
     id="defs2">
    <linearGradient
       inkscape:collect="always"
       id="linearGradient845">
      <stop
         style="stop-color:#4d4d4d;stop-opacity:1;"
         offset="0"
         id="stop841" />
      <stop
         style="stop-color:#3f3f3f;stop-opacity:1"
         offset="1"
         id="stop843" />
    </linearGradient>
    <linearGradient
       inkscape:collect="always"
       id="linearGradient858">
      <stop
         style="stop-color:#ffffff;stop-opacity:1;"
         offset="0"
         id="stop854" />
      <stop
         style="stop-color:#d7d7d7;stop-opacity:1"
         offset="1"
         id="stop856" />
    </linearGradient>
    <linearGradient
       inkscape:collect="always"
       id="linearGradient863">
      <stop
         style="stop-color:#ffffff;stop-opacity:1;"
         offset="0"
         id="stop859" />
      <stop
         style="stop-color:#d7d7d7;stop-opacity:1"
         offset="1"
         id="stop861" />
    </linearGradient>
    <linearGradient
       inkscape:collect="always"
       id="linearGradient855">
      <stop
         style="stop-color:#333333;stop-opacity:1"
         offset="0"
         id="stop851" />
      <stop
         id="stop4553"
         offset="0.50769234"
         style="stop-color:#333333;stop-opacity:1" />
      <stop
         style="stop-color:#4a4a4a;stop-opacity:1"
         offset="1"
         id="stop853" />
    </linearGradient>
    <linearGradient
       inkscape:collect="always"
       xlink:href="#linearGradient855"
       id="linearGradient857"
       x1="540.1098"
       y1="2.0078433"
       x2="540.1098"
       y2="1026.0078"
       gradientUnits="userSpaceOnUse"
       gradientTransform="matrix(0.99609375,0,0,0.99609375,2,2)" />
    <linearGradient
       inkscape:collect="always"
       xlink:href="#linearGradient863"
       id="linearGradient885"
       gradientUnits="userSpaceOnUse"
       x1="367.89999"
       y1="339.89999"
       x2="367.89999"
       y2="519.90002"
       gradientTransform="translate(98.2207,87.22461)" />
    <linearGradient
       inkscape:collect="always"
       xlink:href="#linearGradient858"
       id="linearGradient860"
       x1="676.12073"
       y1="297.1246"
       x2="676.12073"
       y2="697.12463"
       gradientUnits="userSpaceOnUse" />
    <filter
       inkscape:collect="always"
       style="color-interpolation-filters:sRGB"
       id="filter886"
       x="-0.042650555"
       width="1.0853011"
       y="-0.031143721"
       height="1.0622874">
      <feGaussianBlur
         inkscape:collect="always"
         stdDeviation="4.9310891"
         id="feGaussianBlur888" />
    </filter>
    <linearGradient
       inkscape:collect="always"
       xlink:href="#linearGradient845"
       id="linearGradient847"
       x1="500"
       y1="4"
       x2="500"
       y2="1024"
       gradientUnits="userSpaceOnUse" />
    <radialGradient
       inkscape:collect="always"
       xlink:href="#linearGradient4657"
       id="radialGradient6921"
       cx="100"
       cy="82.38073"
       fx="100"
       fy="82.38073"
       r="100"
       gradientUnits="userSpaceOnUse"
       gradientTransform="matrix(4.705,0,0,3.533613,40.99998,118.41875)" />
    <linearGradient
       id="linearGradient4657">
      <stop
         id="stop4653"
         offset="0"
         style="stop-color:#ffffff;stop-opacity:1" />
      <stop
         id="stop4655"
         offset="1"
         style="stop-color:#ffffff;stop-opacity:0;" />
    </linearGradient>
  </defs>
  <path
     id="path"
     d="m 984.88455,316.75212 q -9.29236,-22.5286 -20.9619,-44.13877 c -4.37603,-8.15784 -9.02221,-16.26166 -13.93853,-24.20339 C 928.86017,214.15784 903.09004,181.79661 872.67373,151.38029 773.10487,51.811441 652.84428,2 512,2 371.15572,2 250.94915,51.811441 151.38029,151.38029 51.811441,250.94915 2,371.15572 2,512 2,652.84428 51.811441,773.10487 151.38029,872.67373 250.94915,972.24259 371.15572,1022 512,1022 652.84428,1022 773.10487,972.24259 872.67373,872.67373 927.50953,817.7839 967.27222,756.62712 991.90781,689.25741 1011.9513,634.31356 1022,575.26377 1022,512 c 0,-48.51483 -5.8888,-94.59852 -17.7203,-138.25106 -1.3507,-4.91631 -2.7553,-9.83263 -4.214,-14.69491 -4.43011,-14.37077 -9.50849,-28.4714 -15.18115,-42.30191 z"
     style="fill:url(#linearGradient847);fill-opacity:1;stroke-width:1.08050847"
     inkscape:connector-curvature="0" />
  <path
     id="path1"
     d="m 967.96191,392.51855 c -1.0957,-4.333 -2.34082,-8.96484 -3.63574,-13.54687 -0.99609,-3.38672 -1.99219,-6.82324 -3.13769,-10.45898 -1.59375,-5.12989 -3.38672,-10.45899 -5.2793,-15.78809 -6.42481,-18.17871 -14.09473,-35.90918 -23.05957,-53.44043 -3.78516,-7.37109 -7.91895,-14.8916 -12.25195,-22.3125 -20.22071,-34.36523 -45.6211,-66.9375 -76.05176,-97.36816 C 772.22949,107.28711 688.00977,63.40918 591.88672,48.069336 575.7002,45.479492 559.21484,43.686523 542.03223,42.740234 c -9.66211,-0.547851 -19.77246,-0.846679 -29.98243,-0.846679 -9.31347,0 -18.52734,0.249023 -27.79101,0.74707 -117.8877,6.076172 -219.43945,51.74707 -304.65527,136.962895 Q 41.893555,317.31348 41.893555,512.0498 c 0,129.84082 45.919922,240.70606 137.709965,332.4961 56.47851,56.42871 120.0791,95.52539 190.35351,117.09082 36.60645,11.20605 74.50781,17.78027 114.30176,19.87207 0.14941,0 0.24902,0 0.39844,0 8.46679,0.44824 16.53515,0.69726 24.40429,0.69726 1.19532,0 2.0918,0 2.98828,0 10.25977,0 20.41993,-0.29882 29.98243,-0.79687 2.49023,-0.14941 4.73144,-0.29883 6.92285,-0.44824 20.12109,-1.44434 39.74414,-4.03418 58.4707,-7.66992 7.91895,-1.54395 15.73828,-3.28711 23.30859,-5.12989 80.48438,-20.2207 151.55567,-61.35937 213.81153,-123.61523 48.41015,-48.41016 84.07031,-102.09961 106.93066,-161.16797 18.37793,-47.46387 28.53809,-98.41406 30.43067,-152.90039 0.19922,-6.02637 0.29882,-12.20215 0.29882,-18.42774 0,-0.64746 0,-1.34472 0,-1.99218 0,-0.34864 0,-0.64746 0,-0.9961 -0.19921,-40.49121 -4.93066,-79.18945 -14.24414,-116.54297 z"
     style="fill:url(#linearGradient857);fill-opacity:1;stroke:none;stroke-width:0.99609375;stroke-opacity:1"
     inkscape:connector-curvature="0" />
  <circle
     style="color:#000000;display:inline;overflow:visible;visibility:visible;opacity:0.2;fill:url(#radialGradient6921);fill-opacity:1;fill-rule:nonzero;stroke:none;stroke-width:42.97708511;marker:none;enable-background:accumulate"
     id="path4188-6-4"
     cx="511.5"
     cy="512.5"
     r="470.5" />
  <mask
     id="bg1">
    <g
       id="g">
      <g
         id="shape16">
        <path
           id="path10"
           fill="#FFFFFF"
           fill-opacity="1"
           d="M969.75,392.05 C968.65,387.7 967.4,383.05 966.1,378.45 965.1,375.05 964.1,371.6 962.95,367.95 961.35,362.8 959.55,357.45 957.65,352.1 951.2,333.85 943.5,316.05 934.5,298.45 930.7,291.05 926.55,283.5 922.2,276.05 901.9,241.55 876.4,208.85 845.85,178.3 773.25,105.7 688.7,61.65 592.2,46.25 575.95,43.65 559.4,41.85 542.15,40.9 532.45,40.35 522.3,40.05 512.05,40.05 502.7,40.05 493.45,40.3 484.15,40.8 365.8,46.9 263.85,92.75 178.3,178.3 Q40.05,316.55 40.05,512.05 C40.05,642.4 86.15,753.7 178.3,845.85 235,902.5 298.85,941.75 369.4,963.4 406.15,974.65 444.2,981.25 484.15,983.35 484.3,983.35 484.4,983.35 484.55,983.35 493.05,983.8 501.15,984.05 509.05,984.05 510.25,984.05 511.15,984.05 512.05,984.05 522.35,984.05 532.55,983.75 542.15,983.25 544.65,983.1 546.9,982.95 549.1,982.8 569.3,981.35 589,978.75 607.8,975.1 615.75,973.55 623.6,971.8 631.2,969.95 712,949.65 783.35,908.35 845.85,845.85 894.45,797.25 930.25,743.35 953.2,684.05 971.65,636.4 981.85,585.25 983.75,530.55 983.95,524.5 984.05,518.3 984.05,512.05 984.05,511.4 984.05,510.7 984.05,510.05 984.05,509.7 984.05,509.4 984.05,509.05 983.85,468.4 979.1,429.55 969.75,392.05z" />
      </g>
    </g>
  </mask>
  <g
     id="g868"
     transform="translate(-16.1207,6.87539)"
     style="fill:#000000;fill-opacity:1;filter:url(#filter886);opacity:0.2">
    <g
       id="g866"
       style="fill:#000000;fill-opacity:1">
      <path
         inkscape:connector-curvature="0"
         d="m 434.27109,432.32383 c -4.9,0 -9.09961,1.75 -12.59961,5.25 -3.45,3.45 -5.20117,7.65078 -5.20117,12.55078 0,4.9 1.75117,9.10078 5.20117,12.55078 l 54.44922,54.44922 -54.40039,54.40039 c -3.5,3.5 -5.24883,7.69961 -5.29883,12.59961 0.05,4.9 1.8,9.10078 5.25,12.55078 3.5,3.45 7.69883,5.2 12.54883,5.25 4.95,0 9.15039,-1.75 12.65039,-5.25 l 60.5,-60.55078 c 12.7,-12.65 12.7,-25.35078 0,-38.05078 L 446.81992,437.525 c -3.46667,-3.46667 -7.64883,-5.20117 -12.54883,-5.20117 z"
         style="fill:#000000;fill-opacity:1"
         id="path862" />
      <rect
         rx="20"
         y="307.89999"
         x="653.90002"
         height="380"
         width="40"
         id="rect864"
         style="opacity:1;fill:#000000;fill-opacity:1;stroke:none;stroke-width:30;stroke-linecap:square;stroke-linejoin:miter;stroke-miterlimit:10;stroke-dasharray:none;stroke-opacity:1;paint-order:stroke markers fill" />
    </g>
  </g>
  <g
     transform="translate(-16.1207,-3.12461)"
     id="Calque.__206-3">
    <g
       id="shape18-6">
      <path
         id="path11-7"
         style="fill:url(#linearGradient885);fill-opacity:1"
         d="m 434.27109,432.32383 c -4.9,0 -9.09961,1.75 -12.59961,5.25 -3.45,3.45 -5.20117,7.65078 -5.20117,12.55078 0,4.9 1.75117,9.10078 5.20117,12.55078 l 54.44922,54.44922 -54.40039,54.40039 c -3.5,3.5 -5.24883,7.69961 -5.29883,12.59961 0.05,4.9 1.8,9.10078 5.25,12.55078 3.5,3.45 7.69883,5.2 12.54883,5.25 4.95,0 9.15039,-1.75 12.65039,-5.25 l 60.5,-60.55078 c 12.7,-12.65 12.7,-25.35078 0,-38.05078 L 446.81992,437.525 c -3.46667,-3.46667 -7.64883,-5.20117 -12.54883,-5.20117 z"
         inkscape:connector-curvature="0" />
      <rect
         style="opacity:1;fill:url(#linearGradient860);fill-opacity:1;stroke:none;stroke-width:30;stroke-linecap:square;stroke-linejoin:miter;stroke-miterlimit:10;stroke-dasharray:none;stroke-opacity:1;paint-order:stroke markers fill"
         id="rect4551"
         width="40"
         height="380"
         x="653.90002"
         y="307.89999"
         rx="20" />
    </g>
  </g>
</svg>
